<?xml version="1.0" standalone="no"?>
<!DOCTYPE svg PUBLIC "-//W3C//DTD SVG 20010904//EN"
 "http://www.w3.org/TR/2001/REC-SVG-20010904/DTD/svg10.dtd">
<svg version="1.0" xmlns="http://www.w3.org/2000/svg"
 width="256.000000pt" height="256.000000pt" viewBox="0 0 256.000000 256.000000"
 preserveAspectRatio="xMidYMid meet">
<metadata>
Created by potrace 1.11, written by Peter Selinger 2001-2013
</metadata>
<g transform="translate(0.000000,256.000000) scale(0.100000,-0.100000)"
fill="#000000" stroke="none">
<path d="M790 2547 c0 -14 -41 -57 -53 -57 -4 0 -28 -21 -53 -47 -123 -127
-211 -327 -241 -551 -21 -161 -10 -301 39 -497 17 -67 22 -133 29 -400 9 -327
12 -363 44 -496 10 -42 16 -83 12 -91 -3 -8 -20 -18 -37 -21 -17 -4 -47 -14
-66 -23 -18 -9 -40 -14 -48 -11 -7 3 -28 -8 -45 -24 -18 -16 -35 -29 -39 -29
-4 0 -18 -16 -32 -34 -14 -19 -36 -42 -50 -51 -14 -9 -38 -34 -54 -56 -16 -21
-49 -58 -73 -81 -24 -24 -48 -51 -54 -60 -9 -17 51 -18 1211 -18 1026 0 1220
2 1220 14 0 7 -9 42 -20 76 -11 35 -22 73 -25 84 -4 23 -15 65 -19 81 -2 6 -6
24 -11 40 -4 17 -14 37 -22 45 -7 8 -27 34 -43 57 -36 51 -99 93 -139 93 -16
0 -31 5 -33 11 -4 12 -34 16 -218 28 -133 9 -222 35 -228 65 -2 9 10 30 26 47
17 17 39 58 51 96 12 36 32 84 45 107 13 23 24 61 25 86 3 62 40 180 57 180 8
0 14 -11 14 -25 0 -39 22 -29 65 30 51 70 79 72 83 5 2 -34 -4 -58 -23 -94
-14 -27 -24 -50 -22 -52 19 -19 102 161 132 289 26 107 30 257 11 402 -19 143
-44 264 -57 281 -15 18 -15 79 -1 79 16 0 94 -170 133 -290 36 -110 80 -339
74 -380 -17 -103 -18 -148 -4 -143 19 6 37 118 39 243 3 187 -35 344 -146 600
-86 199 -166 330 -274 448 l-52 57 -564 0 c-462 0 -564 -2 -564 -13z m37
-1504 c4 -10 9 -20 13 -23 3 -3 16 -22 28 -42 31 -50 121 -131 178 -158 44
-22 46 -24 39 -59 -12 -66 -69 -138 -153 -191 -42 -27 -82 -54 -89 -59 -28
-25 -83 -49 -121 -55 -23 -3 -52 -11 -64 -17 l-21 -11 7 158 c7 179 16 270 31
324 1 3 5 17 9 32 9 32 33 43 53 26 8 -7 31 -36 50 -66 19 -30 36 -53 38 -51
2 3 -2 29 -9 59 -26 111 -29 150 -11 150 8 0 19 -8 22 -17z m883 -167 c15 -19
21 -94 9 -102 -20 -12 -36 17 -38 66 -1 51 7 62 29 36z"/>
</g>
</svg>
